<svg width="36" height="36" viewBox="0 0 36 36" fill="none" xmlns="http://www.w3.org/2000/svg">
<g id="Arrow-right">
<path id="Union" fill-rule="evenodd" clip-rule="evenodd" d="M11.4307 5.20584C11.4307 4.9205 11.6025 4.66322 11.8661 4.55389C12.1297 4.44456 12.4331 4.50467 12.6351 4.70623L25.1658 17.2109C25.2985 17.3433 25.373 17.523 25.373 17.7105C25.373 17.8979 25.2985 18.0777 25.1658 18.2101L12.6351 30.7147C12.4331 30.9163 12.1297 30.9764 11.8661 30.8671C11.6025 30.7578 11.4307 30.5005 11.4307 30.2151V5.20584ZM12.8424 28.5136L23.668 17.7105L12.8424 6.90733V28.5136Z" fill="#00CDB5"/>
<path id="Union_2" d="M21.6994 17.7934C21.8398 17.6553 21.8398 17.4289 21.6994 17.2908L14.9037 10.602C14.6807 10.3826 14.3036 10.5405 14.3036 10.8533V24.2308C14.3036 24.5437 14.6807 24.7016 14.9037 24.4822L21.6994 17.7934Z" fill="#00CDB5"/>
</g>
</svg>
