<svg width="24" height="24" viewBox="0 0 24 24" fill="none" xmlns="http://www.w3.org/2000/svg">
<path d="M18.7992 6.40295C19.1311 6.071 19.1311 5.53281 18.7992 5.20086C18.4672 4.86892 17.929 4.86892 17.5971 5.20086L12 10.7979L6.40295 5.20086C6.071 4.86892 5.53281 4.86892 5.20086 5.20086C4.86892 5.53281 4.86892 6.071 5.20086 6.40295L10.7979 12L5.20086 17.5971C4.86892 17.929 4.86892 18.4672 5.20086 18.7992C5.53281 19.1311 6.071 19.1311 6.40295 18.7992L12 13.2021L17.5971 18.7992C17.929 19.1311 18.4672 19.1311 18.7992 18.7992C19.1311 18.4672 19.1311 17.929 18.7992 17.5971L13.2021 12L18.7992 6.40295Z" fill="#727393"/>
</svg>
