<svg width="80" height="80" viewBox="0 0 80 80" fill="none" xmlns="http://www.w3.org/2000/svg">
<g clip-path="url(#clip0_2628_15781)">
<circle opacity="0.8" cx="40.0001" cy="40" r="39.2157" fill="url(#paint0_linear_2628_15781)"/>
<path d="M30.5881 30.5883H51.7646V51.7647H30.5881V30.5883Z" fill="#00CDB5"/>
<path d="M40 61.5687C28.0877 61.5687 18.4314 51.9124 18.4314 40.0001C18.4314 28.0877 28.0877 18.4315 40 18.4315C51.9124 18.4315 61.5686 28.0877 61.5686 40.0001C61.5686 51.9124 51.9124 61.5687 40 61.5687ZM37.0279 32.2677C36.8981 32.1811 36.7472 32.1313 36.5913 32.1237C36.4355 32.116 36.2805 32.1508 36.1428 32.2243C36.0051 32.2978 35.89 32.4072 35.8096 32.541C35.7292 32.6747 35.6866 32.8278 35.6863 32.9838V47.0164C35.6866 47.1724 35.7292 47.3255 35.8096 47.4592C35.89 47.5929 36.0051 47.7024 36.1428 47.7759C36.2805 47.8494 36.4355 47.8841 36.5913 47.8765C36.7472 47.8688 36.8981 47.819 37.0279 47.7324L47.5512 40.7183C47.6695 40.6396 47.7666 40.5328 47.8337 40.4075C47.9008 40.2822 47.936 40.1422 47.936 40.0001C47.936 39.8579 47.9008 39.718 47.8337 39.5927C47.7666 39.4674 47.6695 39.3606 47.5512 39.2818L37.0257 32.2677H37.0279Z" fill="white"/>
</g>
<defs>
<linearGradient id="paint0_linear_2628_15781" x1="79.2158" y1="40" x2="-2.90188" y2="42.4293" gradientUnits="userSpaceOnUse">
<stop stop-color="#FFB800"/>
<stop offset="0.34375" stop-color="#28A7E3"/>
<stop offset="0.947917" stop-color="#00D6BD"/>
</linearGradient>
<clipPath id="clip0_2628_15781">
<rect width="80" height="80" fill="white"/>
</clipPath>
</defs>
</svg>
