<svg width="32" height="32" viewBox="0 0 32 32" fill="none" xmlns="http://www.w3.org/2000/svg">
<path fill-rule="evenodd" clip-rule="evenodd" d="M16.0209 6.28571C9.86652 6.28571 5.18479 10.5359 5.18479 15.4274C5.18479 17.1839 5.77295 18.8318 6.80978 20.2281C6.95608 20.4251 7.03508 20.664 7.03508 20.9094C7.03508 22.1002 6.72237 23.2545 6.33775 24.2957C6.0955 24.9515 5.8077 25.6039 5.53288 26.2102C7.88267 25.9606 9.4242 25.2082 10.3537 24.1143C10.6659 23.7469 11.1751 23.615 11.6264 23.7845C12.9661 24.2876 14.4522 24.569 16.0209 24.569C22.1753 24.569 26.857 20.3188 26.857 15.4274C26.857 10.5359 22.1753 6.28571 16.0209 6.28571ZM2.89908 15.4274C2.89908 8.95888 8.94367 4 16.0209 4C23.0981 4 29.1427 8.95888 29.1427 15.4274C29.1427 21.8959 23.0981 26.8547 16.0209 26.8547C14.4516 26.8547 12.9431 26.6149 11.5432 26.173C9.89193 27.7141 7.49272 28.4549 4.55784 28.5702C3.36229 28.6171 2.49937 27.3737 2.99997 26.2606C3.10248 26.0311 3.20588 25.8042 3.30867 25.5787C3.62377 24.8874 3.93336 24.2083 4.19365 23.5036C4.48635 22.7113 4.68569 21.9627 4.73656 21.2574C3.57446 19.5652 2.89908 17.5681 2.89908 15.4274ZM15.9859 11.4308C15.4957 11.4308 15.081 11.766 14.9638 12.2214C14.8065 12.8326 14.1834 13.2006 13.5721 13.0433C12.9609 12.8859 12.5929 12.2629 12.7502 11.6516C13.121 10.2109 14.4275 9.14504 15.9859 9.14504C17.831 9.14504 19.3269 10.6408 19.3269 12.486C19.3268 13.9599 18.5162 14.733 17.9678 15.2449C17.4312 15.7457 17.1911 15.9778 17.1173 16.4944C17.028 17.1192 16.4491 17.5534 15.8243 17.4641C15.1994 17.3748 14.7653 16.796 14.8545 16.1711C15.0452 14.8364 15.8282 14.1113 16.3296 13.6469L16.4082 13.5739C16.8901 13.1241 17.0411 12.9355 17.0411 12.486C17.0411 11.9032 16.5687 11.4308 15.9859 11.4308ZM15.9988 21.7143C16.7878 21.7143 17.4274 21.0747 17.4274 20.2857C17.4274 19.4967 16.7878 18.8571 15.9988 18.8571C15.2099 18.8571 14.5703 19.4967 14.5703 20.2857C14.5703 21.0747 15.2099 21.7143 15.9988 21.7143Z" fill="#00CDB5"/>
</svg>
