<svg width="20" height="20" viewBox="0 0 20 20" fill="none" xmlns="http://www.w3.org/2000/svg">
<path fill-rule="evenodd" clip-rule="evenodd" d="M10.0001 4.64287C10.3946 4.64287 10.7144 4.96267 10.7144 5.35716V9.86984L13.4341 10.7489C13.8095 10.8703 14.0154 11.2729 13.8941 11.6483C13.7728 12.0236 13.3701 12.2296 12.9947 12.1083L9.78045 11.0693C9.48562 10.974 9.28585 10.6995 9.28585 10.3896V5.35716C9.28585 4.96267 9.60565 4.64287 10.0001 4.64287ZM10.0001 17.1429C13.945 17.1429 17.143 13.9449 17.143 10C17.143 6.05513 13.945 2.85716 10.0001 2.85716C6.05525 2.85716 2.85728 6.05513 2.85728 10C2.85728 13.9449 6.05525 17.1429 10.0001 17.1429ZM10.0001 18.5714C14.734 18.5714 18.5716 14.7339 18.5716 10C18.5716 5.26615 14.734 1.42859 10.0001 1.42859C5.26627 1.42859 1.42871 5.26615 1.42871 10C1.42871 14.7339 5.26627 18.5714 10.0001 18.5714Z" fill="#00CDB5"/>
</svg>
