<svg width="32" height="32" viewBox="0 0 32 32" fill="none" xmlns="http://www.w3.org/2000/svg">
<circle cx="16" cy="16" r="14" fill="#FF4363"/>
<path d="M9.52848 9.52851C10.2331 8.82385 11.3756 8.82383 12.0803 9.52846L16 13.4477L19.9197 9.52846C20.5707 8.87747 21.5938 8.82825 22.3025 9.37931L22.3287 9.39968L22.4482 9.5052L22.4715 9.52851C23.1762 10.2332 23.1761 11.3757 22.4715 12.0804L18.5523 16L22.4716 19.9197C23.1226 20.5708 23.1718 21.5938 22.6207 22.3025L22.6003 22.3287L22.4948 22.4482L22.4715 22.4715C21.7669 23.1762 20.6243 23.1761 19.9197 22.4715L16 18.5524L12.0803 22.4716C11.4293 23.1226 10.4062 23.1718 9.69749 22.6207L9.67129 22.6003L9.55179 22.4948L9.52848 22.4715C8.82382 21.7669 8.82385 20.6243 9.52848 19.9197L13.4477 16L9.52844 12.0803C8.87744 11.4293 8.82823 10.4062 9.37928 9.69751L9.39965 9.67131L9.50518 9.55181L9.52848 9.52851Z" fill="white"/>
</svg>
