<svg width="28" height="28" viewBox="0 0 28 28" fill="none" xmlns="http://www.w3.org/2000/svg">
<path d="M14.0001 2C17.3138 2 20.0001 4.68629 20.0001 8L20.0022 10.0227C20.845 10.075 21.3827 10.2224 21.937 10.5189C22.6001 10.8735 23.1266 11.4 23.4812 12.0631C23.8664 12.7834 24.0001 13.4756 24.0001 14.8458V21.1542C24.0001 22.5244 23.8664 23.2166 23.4812 23.9369C23.1266 24.6 22.6001 25.1265 21.937 25.4811C21.2167 25.8663 20.5245 26 19.1543 26H8.84595C7.47576 26 6.78354 25.8663 6.06325 25.4811C5.4001 25.1265 4.87367 24.6 4.51901 23.9369C4.1338 23.2166 4.00012 22.5244 4.00012 21.1542V14.8458C4.00012 13.4756 4.1338 12.7834 4.51901 12.0631C4.87367 11.4 5.4001 10.8735 6.06325 10.5189C6.61777 10.2223 7.15566 10.0748 7.99907 10.0227L8.00012 8C8.00012 4.68629 10.6864 2 14.0001 2ZM19.1543 12H8.84595C7.77769 12 7.39738 12.0734 7.00645 12.2825C6.69183 12.4508 6.4509 12.6917 6.28263 13.0063C6.07356 13.3973 6.00012 13.7776 6.00012 14.8458V21.1542C6.00012 22.2224 6.07356 22.6027 6.28263 22.9937C6.4509 23.3083 6.69183 23.5492 7.00645 23.7175C7.39738 23.9266 7.77769 24 8.84595 24H19.1543C20.2226 24 20.6029 23.9266 20.9938 23.7175C21.3084 23.5492 21.5493 23.3083 21.7176 22.9937C21.9267 22.6027 22.0001 22.2224 22.0001 21.1542V14.8458C22.0001 13.7776 21.9267 13.3973 21.7176 13.0063C21.5493 12.6917 21.3084 12.4508 20.9938 12.2825C20.6029 12.0734 20.2226 12 19.1543 12ZM14.0001 15C14.5524 15 15.0001 15.4477 15.0001 16V19C15.0001 19.5523 14.5524 20 14.0001 20C13.4478 20 13.0001 19.5523 13.0001 19V16C13.0001 15.4477 13.4478 15 14.0001 15ZM14.0001 4C11.791 4 10.0001 5.79086 10.0001 8V10H18.0001V8C18.0001 5.79086 16.2093 4 14.0001 4Z" fill="white"/>
</svg>
