<svg width="24" height="24" viewBox="0 0 24 24" fill="none" xmlns="http://www.w3.org/2000/svg">
<path fill-rule="evenodd" clip-rule="evenodd" d="M12.0155 4.71429C7.39977 4.71429 3.88847 7.90192 3.88847 11.5705C3.88847 12.8879 4.32959 14.1238 5.10721 15.1711C5.21694 15.3188 5.27619 15.498 5.27619 15.6821C5.27619 16.5751 5.04165 17.4409 4.75319 18.2218C4.5715 18.7136 4.35565 19.2029 4.14954 19.6576C5.91188 19.4704 7.06803 18.9061 7.76519 18.0857C7.99933 17.8102 8.3812 17.7112 8.7197 17.8383C9.72445 18.2157 10.839 18.4268 12.0155 18.4268C16.6313 18.4268 20.1426 15.2391 20.1426 11.5705C20.1426 7.90192 16.6313 4.71429 12.0155 4.71429ZM2.17419 11.5705C2.17419 6.71916 6.70763 3 12.0155 3C17.3235 3 21.8569 6.71916 21.8569 11.5705C21.8569 16.4219 17.3235 20.1411 12.0155 20.1411C10.8386 20.1411 9.70724 19.9612 8.65726 19.6297C7.41882 20.7856 5.61942 21.3412 3.41826 21.4276C2.5216 21.4629 1.87441 20.5302 2.24986 19.6954C2.32673 19.5233 2.40429 19.3532 2.48138 19.184C2.71771 18.6656 2.9499 18.1562 3.14512 17.6277C3.36464 17.0335 3.51414 16.472 3.5523 15.9431C2.68073 14.6739 2.17419 13.1761 2.17419 11.5705ZM11.9893 8.57306C11.6217 8.57306 11.3106 8.82447 11.2227 9.16602C11.1047 9.62446 10.6374 9.90045 10.179 9.78245C9.72053 9.66446 9.44454 9.19716 9.56254 8.73872C9.84066 7.65816 10.8205 6.85878 11.9893 6.85878C13.3732 6.85878 14.495 7.98063 14.495 9.36452C14.495 10.47 13.8871 11.0497 13.4757 11.4336C13.0733 11.8093 12.8932 11.9833 12.8378 12.3708C12.7709 12.8394 12.3367 13.165 11.8681 13.0981C11.3995 13.0311 11.0738 12.597 11.1408 12.1283C11.2838 11.1273 11.871 10.5834 12.2471 10.2352L12.306 10.1804C12.6674 9.84308 12.7807 9.70159 12.7807 9.36451C12.7807 8.92741 12.4264 8.57306 11.9893 8.57306ZM11.999 16.2857C12.5907 16.2857 13.0704 15.806 13.0704 15.2143C13.0704 14.6226 12.5907 14.1429 11.999 14.1429C11.4073 14.1429 10.9276 14.6226 10.9276 15.2143C10.9276 15.806 11.4073 16.2857 11.999 16.2857Z" fill="#727393"/>
</svg>
