<svg width="22" height="24" viewBox="0 0 22 24" fill="none" xmlns="http://www.w3.org/2000/svg">
<path fill-rule="evenodd" clip-rule="evenodd" d="M8.7578 9.45005V8.51395C8.4329 8.46795 8.1053 8.44405 7.77715 8.4425C3.76453 8.4425 0.5 11.7076 0.5 15.7203C0.5 18.1817 1.73018 20.3606 3.60678 21.6782C2.35024 20.3344 1.65166 18.5631 1.65268 16.7234C1.65268 12.7679 4.8243 9.5424 8.7578 9.45005Z" fill="#00CDB5"/>
<path fill-rule="evenodd" clip-rule="evenodd" d="M8.9293 20.0467C10.7196 20.0467 12.1801 18.6225 12.2466 16.8476L12.2527 1.00316H15.1473C15.0855 0.67234 15.0542 0.336542 15.0538 0H11.1006L11.094 15.845C11.028 17.6194 9.56695 19.043 7.7772 19.043C7.23985 19.0432 6.7106 18.9123 6.23535 18.6616C6.5422 19.0897 6.9466 19.4386 7.41505 19.6794C7.8835 19.9203 8.40255 20.0462 8.9293 20.0467ZM20.5545 6.3812V5.5006C19.4907 5.5016 18.4497 5.19215 17.5593 4.61014C18.34 5.50905 19.3911 6.13045 20.555 6.3812" fill="#00CDB5"/>
<path fill-rule="evenodd" clip-rule="evenodd" d="M17.559 4.60955C16.6864 3.61104 16.2057 2.32977 16.2063 1.00366H15.1471C15.2842 1.73663 15.5687 2.43414 15.9833 3.05395C16.3979 3.67376 16.9339 4.20297 17.559 4.60955ZM7.77696 12.3963C6.89586 12.3973 6.05116 12.7478 5.42811 13.3708C4.80511 13.9938 4.45466 14.8385 4.45361 15.7196C4.45421 16.3257 4.62041 16.9202 4.93431 17.4387C5.24821 17.9571 5.69781 18.38 6.23456 18.6615C5.82586 18.0979 5.60581 17.4195 5.60576 16.7234C5.60661 15.8422 5.95701 14.9973 6.58006 14.3742C7.20311 13.751 8.04791 13.4005 8.92911 13.3995C9.27156 13.3995 9.59971 13.4561 9.90971 13.5534V9.51705C9.58486 9.47105 9.25721 9.44715 8.92911 9.4456C8.87136 9.4456 8.81476 9.4489 8.75761 9.45V12.5502C8.44046 12.4493 8.10976 12.3974 7.77696 12.3963Z" fill="#FF004F"/>
<path fill-rule="evenodd" clip-rule="evenodd" d="M20.5546 6.38117V9.45387C18.5043 9.45387 16.6051 8.79812 15.0539 7.68502V15.7197C15.0539 19.7323 11.79 22.9968 7.77735 22.9968C6.2267 22.9968 4.78875 22.5076 3.60693 21.6776C4.2864 22.4103 5.10985 22.9948 6.02575 23.3945C6.94165 23.7941 7.9302 24.0002 8.92945 24C12.9421 24 16.2066 20.7355 16.2066 16.7234V8.68872C17.8091 9.84102 19.7335 10.4599 21.7072 10.4576V6.50322C21.3115 6.50322 20.9267 6.46032 20.5546 6.38062" fill="#FF004F"/>
<path fill-rule="evenodd" clip-rule="evenodd" d="M15.054 15.7196V7.685C16.6564 8.8374 18.5808 9.45625 20.5546 9.45385V6.38115C19.3909 6.13015 18.3399 5.50855 17.5594 4.60955C16.9343 4.20297 16.3982 3.67376 15.9836 3.05395C15.5691 2.43414 15.2846 1.73663 15.1474 1.00366H12.2528L12.2468 16.8481C12.1803 18.6225 10.7198 20.0467 8.92945 20.0467C8.4027 20.0462 7.88365 19.9202 7.4152 19.6794C6.9468 19.4385 6.5424 19.0896 6.2355 18.6615C5.69865 18.3801 5.2489 17.9573 4.9349 17.4388C4.6209 16.9203 4.4546 16.3258 4.454 15.7196C4.455 14.8385 4.80545 13.9938 5.4285 13.3708C6.0515 12.7478 6.89625 12.3973 7.77735 12.3963C8.11925 12.3963 8.4474 12.4524 8.75795 12.5502V9.45C4.82445 9.54235 1.65283 12.7679 1.65283 16.7234C1.65283 18.6362 2.396 20.3776 3.60694 21.6781C4.8277 22.5375 6.28445 22.9981 7.77735 22.9968C11.79 22.9968 15.054 19.7323 15.054 15.7196Z" fill="black"/>
</svg>
